:SAMPLES-PER-SECOND 30
:FULLY-SPECIFIED
:DEGREES
77
root  -61.5163 38.1337 22.9405 -158.526 -6.83041 176.601
RightUpLeg  -62.1373 -32.1454 26.9374
RightLeg  28.0747 -5.90369 -3.60797
RightFoot  -6.53155 0.122533 -3.62726
RightToes  0.00048216 0.542163 -0.142577
Spine  58.5284 -2.4059 8.0852
Spine1  12.8591 2.80472 -2.71574
HEad  -35.4901 -9.02979 5.78919
LeftShoulder1  7.81939 -23.4538 -22.5696
LeftArm  -32.8065 -63.3815 -17.8264
LeftForeArm  23.5136 -4.95378 -3.27239
LeftHand  -0.25398 0.0180481 5.50724
RightShoulder  3.27186 15.8205 9.59435
RightArm  -38.9093 58.4965 11.1129
RightForeArm  -8.21187 -0.902745 4.02405
RightHand  -0.701359 2.41531 -10.6598
LeftUpLeg  -57.0777 28.5526 -19.7359
LeftLeg  27.5856 -1.59785 -0.563707
LeftFoot  4.48894 -0.605493 4.16044
LeftToes  1.06246e-005 4.65856e-005 -8.18501e-006
78
root  -62.0501 37.8196 22.7879 -155.725 -6.1532 175.433
RightUpLeg  -65.6319 -29.3547 26.1624
RightLeg  28.6669 -6.69857 -4.21595
RightFoot  -3.64269 0.65008 -10.0944
RightToes  0.00048216 0.542163 -0.142577
Spine  60.1803 -2.41693 7.72636
Spine1  11.7136 2.69258 -3.29256
HEad  -37.4902 -9.76859 6.41594
LeftShoulder1  7.62843 -24.6136 -20.5558
LeftArm  -37.5798 -66.4691 -12.8611
LeftForeArm  21.6178 -3.58157 -2.97171
LeftHand  -0.25398 0.0180481 5.50724
RightShoulder  3.16148 16.2719 8.53765
RightArm  -43.9616 58.8968 5.10039
RightForeArm  -10.6512 -1.63279 3.60537
RightHand  -0.687925 2.58437 -10.254
LeftUpLeg  -60.9327 27.1701 -23.1399
LeftLeg  30.0377 -0.916728 -0.223311
LeftFoot  2.72849 -0.713423 5.6559
LeftToes  1.06246e-005 4.65856e-005 -8.18501e-006
79
root  -62.6006 37.4484 22.6325 -153.22 -5.32184 174.961
RightUpLeg  -68.9976 -25.9937 23.29
RightLeg  32.357 -8.87564 -6.25945
RightFoot  -2.34859 1.01205 -13.0603
RightToes  0.00048216 0.542163 -0.142577
Spine  61.6743 -2.70233 7.71554
Spine1  10.6128 2.89572 -4.25764
HEad  -39.4631 -10.0971 6.47475
LeftShoulder1  7.444 -25.7478 -18.7304
LeftArm  -44.6411 -68.9446 -5.66777
LeftForeArm  18.5253 -2.72513 -2.54845
LeftHand  -0.25398 0.0180481 5.50724
RightShoulder  2.97127 16.6211 7.16857
RightArm  -49.6442 59.0858 -1.07766
RightForeArm  -13.0079 -2.16088 3.00673
RightHand  -0.739167 3.21884 -10.2435
LeftUpLeg  -64.5858 25.7402 -25.5387
LeftLeg  32.8941 0.146444 0.461461
LeftFoot  0.156106 -0.717099 7.09947
LeftToes  1.06246e-005 4.65856e-005 -8.18501e-006
80
root  -63.1236 37.0511 22.4442 -150.933 -4.73305 175.532
RightUpLeg  -72.828 -24.6121 23.5725
RightLeg  35.5431 -9.07041 -7.14613
RightFoot  -2.58071 0.952862 -12.5928
RightToes  0.00048216 0.542163 -0.142577
Spine  62.9667 -2.98569 7.95922
Spine1  9.86077 3.25457 -4.83252
HEad  -41.3575 -9.8479 6.27705
LeftShoulder1  7.12323 -26.3891 -16.9749
LeftArm  -53.4561 -70.5291 2.8651
LeftForeArm  13.9635 -2.76647 -1.99761
LeftHand  -0.25398 0.0180481 5.50724
RightShoulder  2.73558 17.0013 5.56731
RightArm  -55.3958 59.1536 -7.01668
RightForeArm  -16.6817 -2.16486 2.5031
RightHand  -0.872869 4.254 -10.811
LeftUpLeg  -68.4622 24.4753 -26.5917
LeftLeg  36.3289 1.05146 1.20002
LeftFoot  -2.26947 -0.623286 8.0031
LeftToes  1.06246e-005 4.65856e-005 -8.18501e-006
81
root  -63.5594 36.6724 22.2405 -148.91 -4.27379 176.583
RightUpLeg  -76.4472 -24.3174 26.1719
RightLeg  37.4416 -7.56887 -6.44463
RightFoot  -2.99408 0.861761 -12.032
RightToes  0.00048216 0.542163 -0.142577
Spine  64.3856 -2.87467 8.08167
Spine1  9.02592 3.5333 -4.81905
HEad  -42.7962 -9.4074 6.45128
LeftShoulder1  6.73872 -26.7933 -15.2508
LeftArm  -61.9224 -71.1248 10.684
LeftForeArm  9.3035 -3.35744 -1.36785
LeftHand  -0.25398 0.0180481 5.50724
RightShoulder  2.53312 17.2886 4.25955
RightArm  -60.2066 59.0885 -11.3709
RightForeArm  -21.7734 -1.58029 2.14888
RightHand  -1.17195 5.81036 -12.4672
LeftUpLeg  -72.3737 23.7254 -27.1152
LeftLeg  39.8462 1.46603 1.6944
LeftFoot  -4.13338 -0.519903 8.63308
LeftToes  1.06246e-005 4.65856e-005 -8.18501e-006
82
root  -63.9013 36.3395 22.0452 -147.209 -3.69521 177.237
RightUpLeg  -79.7049 -24.1699 28.5701
RightLeg  39.1824 -6.0649 -5.55955
RightFoot  -3.17677 0.910985 -12.9951
RightToes  0.00048216 0.542163 -0.142577
Spine  66.0594 -2.55918 7.66075
Spine1  7.68074 3.5837 -4.90704
HEad  -43.619 -9.07765 7.00585
LeftShoulder1  6.42 -27.3081 -13.7096
LeftArm  -68.928 -70.9828 17.5074
LeftForeArm  6.10995 -3.86113 -0.836159
LeftHand  -0.25398 0.0180481 5.50724
RightShoulder  2.37321 17.2648 3.40746
RightArm  -63.8765 59.1909 -13.6474
RightForeArm  -26.2832 -0.805317 1.77169
RightHand  -1.55307 7.56961 -14.2946
LeftUpLeg  -75.698 23.4676 -28.1817
LeftLeg  42.721 1.4668 1.85048
LeftFoot  -5.73515 -0.426544 9.39965
LeftToes  1.06246e-005 4.65856e-005 -8.18501e-006
83
root  -64.1834 36.0714 21.8549 -145.625 -3.11734 177.507
RightUpLeg  -82.6194 -23.9264 30.1298
RightLeg  40.96 -5.23072 -5.1415
RightFoot  -3.4866 0.92277 -13.6956
RightToes  0.00048216 0.542163 -0.142577
Spine  67.6074 -2.39206 6.93373
Spine1  6.22986 3.46813 -5.32159
HEad  -44.199 -8.81668 7.40208
LeftShoulder1  6.14223 -27.7973 -12.3727
LeftArm  -75.289 -70.3665 24.4832
LeftForeArm  3.83123 -3.96758 -0.42824
LeftHand  -0.25398 0.0180481 5.50724
RightShoulder  2.13923 16.8418 2.37535
RightArm  -66.9045 59.6181 -14.816
RightForeArm  -28.5941 -0.225961 1.32398
RightHand  -1.66172 8.59391 -14.181
LeftUpLeg  -78.4133 23.3743 -29.7789
LeftLeg  44.7217 1.26032 1.75111
LeftFoot  -7.20107 -0.325016 10.1585
LeftToes  1.06246e-005 4.65856e-005 -8.18501e-006
84
root  -64.4199 35.8666 21.6597 -143.972 -2.83284 177.978
RightUpLeg  -84.9601 -23.461 31.5699
RightLeg  42.1116 -4.59455 -4.73636
RightFoot  -3.91716 0.835011 -13.2004
RightToes  0.00048216 0.542163 -0.142577
Spine  68.5664 -2.25296 6.43672
Spine1  5.47578 3.41718 -5.40435
HEad  -45.0121 -8.55476 7.32007
LeftShoulder1  5.80129 -28.0618 -11.0018
LeftArm  -81.6507 -69.4326 31.2934
LeftForeArm  1.23004 -3.85396 0.147805
LeftHand  -0.25398 0.0180481 5.50724
RightShoulder  1.75538 16.0198 0.648668
RightArm  -69.8715 60.164 -15.9171
RightForeArm  -29.3033 0.357212 0.877354
RightHand  -1.38419 8.75473 -11.7733
LeftUpLeg  -80.9799 23.2504 -31.204
LeftLeg  46.1859 0.989699 1.531
LeftFoot  -8.38278 -0.227193 10.7166
LeftToes  1.06246e-005 4.65856e-005 -8.18501e-006
85
root  -64.6054 35.6995 21.474 -142.474 -2.90434 178.614
RightUpLeg  -86.5897 -22.8079 32.7238
RightLeg  42.7487 -4.13374 -4.38765
RightFoot  -4.22651 0.772509 -12.8178
RightToes  0.00048216 0.542163 -0.142577
Spine  69.003 -2.0332 6.24475
Spine1  5.52256 3.40733 -4.87766
HEad  -46.035 -8.25091 6.97716
LeftShoulder1  5.39358 -28.0879 -9.56119
LeftArm  -87.1553 -68.4275 36.3935
LeftForeArm  -0.9245 -4.03879 0.944909
LeftHand  -0.25398 0.0180481 5.50724
RightShoulder  1.37068 15.0132 -1.14793
RightArm  -73.0788 60.5628 -16.9777
RightForeArm  -29.8502 1.7168 0.49835
RightHand  -1.09555 9.02708 -9.28744
LeftUpLeg  -83.3049 23.0285 -32.2109
LeftLeg  47.4412 0.777463 1.34338
LeftFoot  -9.25064 -0.150115 11.2483
LeftToes  1.06246e-005 4.65856e-005 -8.18501e-006
86
root  -64.7505 35.5421 21.3239 -141.331 -3.07198 178.838
RightUpLeg  -87.8936 -22.1576 32.7842
RightLeg  43.6515 -4.25805 -4.652
RightFoot  -4.42551 0.762821 -13.0454
RightToes  0.00048216 0.542163 -0.142577
Spine  69.391 -2.03126 6.1203
Spine1  5.3493 3.23757 -4.62058
HEad  -46.661 -7.99799 6.94336
LeftShoulder1  5.08896 -28.1713 -8.45107
LeftArm  -89.9294 -67.7642 38.5701
LeftForeArm  -1.29222 -5.174 1.35414
LeftHand  -0.25398 0.0180481 5.50724
RightShoulder  1.31424 14.3101 -1.16537
RightArm  -75.6332 60.6049 -17.7215
RightForeArm  -30.8551 4.55175 0.593785
RightHand  -1.05957 9.86328 -8.53808
LeftUpLeg  -85.0051 22.6192 -33.164
LeftLeg  48.5098 0.694738 1.28636
LeftFoot  -9.87355 -0.092865 11.8517
LeftToes  1.06246e-005 4.65856e-005 -8.18501e-006
87
root  -64.8711 35.4033 21.2164 -140.557 -3.11305 178.788
RightUpLeg  -88.8778 -21.538 32.0191
RightLeg  44.7515 -4.80681 -5.40251
RightFoot  -4.63395 0.729923 -12.9154
RightToes  0.00048216 0.542163 -0.142577
Spine  70.1106 -2.39688 5.98887
Spine1  4.31036 2.95541 -5.24295
HEad  -46.6037 -7.77203 7.42018
LeftShoulder1  5.01791 -28.266 -8.15426
LeftArm  -89.7852 -67.7239 38.1218
LeftForeArm  -1.3983 -7.60216 0.933521
LeftHand  -0.25398 0.0180481 5.50724
RightShoulder  1.64413 14.1986 1.00116
RightArm  -76.4101 60.2734 -17.9412
RightForeArm  -31.6659 8.80323 1.57536
RightHand  -1.06288 10.4742 -8.26565
LeftUpLeg  -86.1471 22.234 -34.0042
LeftLeg  49.3936 0.698336 1.32539
LeftFoot  -10.3221 -0.0476747 12.3047
LeftToes  1.06246e-005 4.65856e-005 -8.18501e-006
88
root  -64.9774 35.307 21.1407 -140.145 -3.21208 178.913
RightUpLeg  -89.3141 -21.0837 31.3935
RightLeg  45.4794 -5.2459 -6.00899
RightFoot  -4.84326 0.667149 -12.2666
RightToes  0.00048216 0.542163 -0.142577
Spine  70.4478 -2.83112 5.35013
Spine1  4.78133 1.92956 -4.84306
HEad  -47.2124 -6.10948 7.14905
LeftShoulder1  4.9054 -25.8922 -9.17309
LeftArm  -92.549 -68.1609 39.8821
LeftForeArm  -4.30932 -10.9294 0.159645
LeftHand  -0.25398 0.0180481 5.50724
RightShoulder  1.47785 14.484 -0.221889
RightArm  -78.2352 60.3025 -15.924
RightForeArm  -30.5851 13.5587 2.37755
RightHand  -0.825837 10.0854 -6.67332
LeftUpLeg  -86.8268 21.9782 -34.2523
LeftLeg  50.0911 0.760023 1.43289
LeftFoot  -10.6999 -0.00560164 12.4796
LeftToes  1.06246e-005 4.65856e-005 -8.18501e-006
